<?xml version="1.0" encoding="utf-8"?>
<!-- Generator: Adobe Illustrator 24.2.0, SVG Export Plug-In . SVG Version: 6.00 Build 0)  -->
<svg version="1.1" id="Layer_1" xmlns="http://www.w3.org/2000/svg" xmlns:xlink="http://www.w3.org/1999/xlink" x="0px" y="0px"
	 viewBox="0 0 4545.3 165.2" enable-background="new 0 0 4545.3 165.2" xml:space="preserve">
<g>
	<path fill="#FFFFFF" d="M2047.7,14.6c1.9,0,3.4-0.7,4.7-2.1c1.3-1.4,2-3.2,2-5.2s-0.7-3.7-2-5.1c-1.3-1.4-2.9-2.1-4.7-2.1
		c-1.8,0-3.4,0.7-4.7,2.1c-1.3,1.4-2,3.1-2,5.1c0,2.1,0.7,3.8,2,5.2C2044.3,13.9,2045.9,14.6,2047.7,14.6z"/>
	<path fill="#FFFFFF" d="M2347.3,0c-1.8,0-3.4,0.7-4.7,2.1c-1.3,1.4-2,3.1-2,5.1c0,2.1,0.7,3.8,2,5.2c1.3,1.4,2.9,2.1,4.7,2.1
		c1.9,0,3.4-0.7,4.7-2.1c1.3-1.4,2-3.2,2-5.2s-0.7-3.7-2-5.1C2350.8,0.7,2349.2,0,2347.3,0z"/>
	<polygon fill="#FFFFFF" points="2105.9,165 2175.8,165 2105.9,86.6 	"/>
	<rect y="54" fill="#FFFFFF" width="2036.2" height="111"/>
	<polygon fill="#FFFFFF" points="2420.7,125.5 2454.6,125.5 2438,87.5 	"/>
	<polygon fill="#FFFFFF" points="2414.1,141.3 2403.2,165 2472.1,165 2461.8,141.3 	"/>
	<path fill="#FFFFFF" d="M2296,110.8c0-13.2-4.4-23.9-13.2-32.1c-7.9-7.3-19.6-11-35.1-11h-8.2v86.1h8.2c8.1,0,14.9-0.9,20.3-2.6
		c5.4-1.8,10.3-4.7,14.6-8.6C2291.5,134.5,2296,123.8,2296,110.8z"/>
	<rect x="2042.6" y="20.2" fill="#FFFFFF" width="10.3" height="33.8"/>
	<path fill="#FFFFFF" d="M2251.2,47.1l0-2.6c0-8-1.9-14.3-5.7-18.8c-3.8-4.6-9-6.8-15.5-6.8c-6.5,0-11.7,2.3-15.6,7
		c-3.9,4.8-5.8,11-5.8,18.7c0,3.5,0.4,6.6,1.2,9.5H2197V38.7c0-13.3-5.1-19.9-15.3-19.9c-5.6,0-10.1,2.4-13.4,7.2
		c-3-4.8-7-7.2-12.2-7.2c-2.3,0-4.2,0.4-5.7,1.2c-1.4,0.8-3.2,2.3-5.2,4.6v-4.5h-10.5V54h-10.1V38.7c0-13.3-5-19.9-15-19.9
		c-5.5,0-9.9,2.4-13.1,7.2c-2.9-4.8-6.9-7.2-11.9-7.2c-2.3,0-4.1,0.4-5.6,1.2c-1.4,0.8-3.1,2.3-5.1,4.6v-4.5h-10.3V54h-10.8v111
		h36.2V54h10.3V43.7c0-5.2,0.6-8.9,1.9-11.2c1.3-2.3,3.4-3.5,6.2-3.5c2.4,0,4.2,1,5.2,2.9c1,1.9,1.6,5.2,1.6,9.9V54h-14.9l71.1,79.8
		l-0.1-79.8l0.1-10.3c0-5.2,0.7-8.9,2-11.2c1.3-2.3,3.4-3.5,6.3-3.5c2.5,0,5,1,6.1,2.9c1.1,1.9,1.6,5.2,1.6,9.9V54l0.1,111.2
		l34.8-0.2V54c-1-1.9-1.8-4.2-2-6.9L2251.2,47.1L2251.2,47.1z M2221.5,34.2c0.6-1.1,1.4-2,2.3-2.8c0.9-0.8,1.9-1.4,3-1.8
		c1.1-0.4,2.3-0.6,3.5-0.6c5.5,0,8.9,3,10.4,9H2220C2220.4,36.5,2220.8,35.3,2221.5,34.2z M2089,54h-15.1V43.7c0-5.1,0.7-8.8,2-11.2
		c1.3-2.4,3.4-3.5,6.3-3.5c4.6,0,6.8,4.3,6.8,13C2089,41.9,2089,54,2089,54z M2159.9,54h-14.7V43.7c0-5.1,0.7-8.8,2-11.2
		c1.4-2.4,2.8-3.5,5.7-3.5c4.7,0,7,4.3,7,13L2159.9,54L2159.9,54z"/>
	<path fill="#FFFFFF" d="M2282.7,29.7c1.9,0,3.8,0.8,5.7,2.3l4.7-10.3c-3-1.9-5.8-2.9-8.5-2.9c-2,0-3.8,0.4-5.3,1.2
		c-1.5,0.8-3.1,2.3-5,4.4v-4.3h-10.3V54h10.3V43.6C2274.3,34.3,2277.1,29.7,2282.7,29.7z"/>
	<path fill="#FFFFFF" d="M2330.1,53.9c0-3.7-0.9-6.6-2.8-8.7c-1.9-2.2-5.6-4.5-11-7.1c-4-1.8-5.9-3.7-5.9-5.5c0-1.1,0.3-1.9,1-2.6
		c0.7-0.7,1.5-1,2.4-1c2,0,3.6,1.5,5,4.5l8.5-4.9c-2.8-6.4-7-9.6-12.7-9.6c-3.9,0-7.1,1.4-9.9,4.1c-2.6,2.8-4,6.3-4,10.5
		c0,3.2,0.8,5.8,2.3,7.8c1.2,1.6,3.3,3.2,6.3,4.8c1.1,0.6,2.1,1.1,3.1,1.6s2.1,1.1,3.1,1.6c2.2,1.5,3.5,3,3.9,4.6h-45.2
		c0.3,0.1,0.6,0.2,0.9,0.2c7.5,2.3,14.4,6.3,20.5,11.9c12.4,11.3,18.6,26.2,18.6,44.6c0,18.5-6.5,33.4-19.4,44.8
		c-4.5,4-9.2,7.1-14,9.4h61.3V54L2330.1,53.9C2330.1,54,2330.1,53.9,2330.1,53.9z"/>
	<rect x="2342.2" y="20.2" fill="#FFFFFF" width="10.3" height="33.8"/>
	<path fill="#FFFFFF" d="M2462.1,54V39c0-6.8-1.2-11.8-3.7-14.8c-2.9-3.6-6.9-5.3-12.1-5.3c-4.5,0-8.5,1.9-12.1,5.8v-4.5h-10.3V54
		h-13.5c1-2.9,1.5-6.1,1.5-9.5c0-7.2-2.3-13.3-6.8-18.3c-4.6-5-10.3-7.4-16.9-7.4c-6.6,0-12.2,2.5-16.8,7.4
		c-4.6,4.9-6.9,10.9-6.9,17.9c0,3.6,0.5,6.9,1.6,9.9h-5.8v111h22.6l51.3-111h0v-8.7c0-6.1,0.7-10.3,2.1-12.7
		c1.4-2.5,3.8-3.7,7.3-3.7c3.1,0,5.3,0.9,6.5,2.8c1.2,1.8,1.8,5.1,1.8,9.9v12.3l-10.8,0l51.5,111l2052.9,0.1V54L2462.1,54z
		 M2399.1,54h-21.9c-1.5-2.6-2.3-5.8-2.3-9.7c0-4.5,1.2-8.2,3.6-11.1c2.4-2.9,5.6-4.3,9.5-4.3c4,0,7.2,1.4,9.6,4.3
		c2.4,2.8,3.6,6.6,3.6,11.3C2401.4,48.3,2400.6,51.4,2399.1,54z M2517,71.7h-4.8v10.6h-2.9V71.7h-3.9v-2.9h11.6V71.7z M2530.5,82.3
		h-2.9V76l-2.5,4.3h-0.9l-2.5-4.3v6.3h-2.9V68.8h3l2.8,6.4l2.7-6.4h3V82.3L2530.5,82.3z"/>
</g>
</svg>
