<?xml version="1.0" encoding="utf-8"?>
<!-- Generator: Adobe Illustrator 21.0.0, SVG Export Plug-In . SVG Version: 6.00 Build 0)  -->
<svg version="1.1" id="Layer_1" xmlns="http://www.w3.org/2000/svg" xmlns:xlink="http://www.w3.org/1999/xlink" x="0px" y="0px"
	 width="545.339px" height="165.221px" viewBox="0 0 545.339 165.221" enable-background="new 0 0 545.339 165.221"
	 xml:space="preserve">
<g>
	<path fill="#231F20" d="M47.713,14.614c1.855,0,3.423-0.715,4.701-2.145c1.307-1.429,1.961-3.159,1.961-5.187
		c0-2.028-0.654-3.741-1.961-5.137C51.105,0.716,49.523,0,47.668,0c-1.826,0-3.392,0.716-4.7,2.145
		c-1.308,1.43-1.962,3.126-1.962,5.087c0,2.062,0.654,3.808,1.962,5.237C44.276,13.899,45.858,14.614,47.713,14.614z"/>
	<path fill="#231F20" d="M347.337,0c-1.825,0-3.392,0.716-4.7,2.145c-1.309,1.43-1.962,3.126-1.962,5.087
		c0,2.062,0.654,3.808,1.962,5.237c1.307,1.43,2.889,2.145,4.745,2.145c1.855,0,3.422-0.715,4.7-2.145
		c1.307-1.429,1.962-3.159,1.962-5.187c0-2.028-0.655-3.741-1.962-5.137C350.774,0.716,349.192,0,347.337,0z"/>
	<polygon fill="#231F20" points="105.895,164.981 175.826,164.981 105.895,86.625 	"/>
	<rect y="53.991" fill="#231F20" width="36.185" height="110.99"/>
	<polygon fill="#231F20" points="420.68,125.457 454.579,125.457 438.027,87.51 	"/>
	<polygon fill="#231F20" points="414.057,141.286 403.189,164.981 472.07,164.981 461.833,141.286 	"/>
	<path fill="#231F20" d="M295.959,110.76c0-13.184-4.412-23.876-13.236-32.077c-7.941-7.319-19.646-10.978-35.114-10.978h-8.175
		v86.109h8.175c8.148,0,14.922-0.856,20.321-2.569c5.398-1.816,10.277-4.697,14.637-8.642
		C291.495,134.455,295.959,123.839,295.959,110.76z"/>
	<rect x="42.557" y="20.182" fill="#231F20" width="10.266" height="33.81"/>
	<path fill="#231F20" d="M251.19,47.116l0.046-2.643c0-8.013-1.887-14.281-5.658-18.803c-3.803-4.555-8.974-6.833-15.513-6.833
		c-6.479,0-11.681,2.345-15.604,7.033c-3.895,4.755-5.841,10.972-5.841,18.654c0,3.463,0.404,6.618,1.206,9.469h-12.829V38.736
		c0-13.268-5.117-19.901-15.349-19.901c-5.63,0-10.094,2.394-13.39,7.182c-2.986-4.788-7.044-7.182-12.177-7.182
		c-2.302,0-4.214,0.416-5.738,1.247c-1.432,0.798-3.158,2.327-5.179,4.588v-4.49h-10.497v33.81h-10.12V38.736
		c0-13.268-5.005-19.901-15.011-19.901c-5.506,0-9.871,2.394-13.095,7.182c-2.92-4.788-6.889-7.182-11.909-7.182
		c-2.251,0-4.121,0.416-5.611,1.247c-1.4,0.798-3.088,2.327-5.065,4.588v-4.49H63.589v33.81H52.826v110.99h36.228V53.991h10.261
		V43.674c0-5.153,0.646-8.894,1.939-11.222c1.292-2.327,3.353-3.491,6.182-3.491c2.433,0,4.182,0.981,5.247,2.942
		c1.033,1.929,1.551,5.221,1.551,9.875v12.213h-14.92l71.123,79.791l-0.062-79.791l0.062-10.318c0-5.153,0.672-8.894,1.995-11.222
		c1.321-2.327,3.429-3.491,6.322-3.491c2.488,0,5.022,0.981,6.112,2.942c1.056,1.929,1.586,5.221,1.586,9.875v12.213l0.05,111.23
		l34.792-0.24V53.991c-0.989-1.932-1.77-4.223-1.952-6.876H251.19z M221.487,34.198c0.639-1.097,1.406-2.037,2.305-2.819
		c0.896-0.78,1.893-1.379,2.988-1.795c1.095-0.415,2.265-0.623,3.513-0.623c5.475,0,8.927,2.992,10.357,8.977h-20.623
		C220.362,36.542,220.848,35.294,221.487,34.198z M89.003,53.991H73.855V43.674c0-5.087,0.661-8.811,1.985-11.172
		c1.323-2.361,3.429-3.541,6.319-3.541c4.563,0,6.844,4.322,6.844,12.968V53.991z M159.907,53.991h-14.743V43.674
		c0-5.087,0.676-8.811,2.029-11.172c1.353-2.361,2.76-3.541,5.715-3.541c4.666,0,6.998,4.322,6.998,12.968V53.991z"/>
	<path fill="#231F20" d="M282.714,29.708c1.855,0,3.757,0.766,5.704,2.295l4.7-10.275c-2.952-1.928-5.78-2.892-8.487-2.892
		c-2.038,0-3.802,0.416-5.292,1.247c-1.461,0.798-3.133,2.277-5.019,4.439v-4.34h-10.266v33.81h10.266V43.575
		C274.32,34.331,277.117,29.708,282.714,29.708z"/>
	<path fill="#231F20" d="M330.12,53.899c0-3.657-0.942-6.567-2.828-8.729c-1.887-2.16-5.552-4.521-10.996-7.082
		c-3.955-1.829-5.932-3.674-5.932-5.536c0-1.064,0.335-1.937,1.004-2.619c0.669-0.681,1.475-1.022,2.418-1.022
		c1.977,0,3.635,1.496,4.974,4.488l8.486-4.937c-2.768-6.417-6.996-9.627-12.684-9.627c-3.863,0-7.149,1.38-9.856,4.14
		c-2.647,2.761-3.969,6.252-3.969,10.474c0,3.192,0.776,5.803,2.327,7.831c1.216,1.596,3.315,3.192,6.297,4.788
		c1.064,0.566,2.113,1.114,3.147,1.646s2.068,1.08,3.103,1.645c2.244,1.451,3.544,2.995,3.907,4.632H274.32
		c0.253,0.081,0.605,0.16,0.852,0.244c7.525,2.336,14.351,6.306,20.476,11.912c12.405,11.316,18.608,26.187,18.608,44.612
		c0,18.479-6.462,33.427-19.386,44.845c-4.517,3.975-9.188,7.087-14.006,9.376h61.317V53.991h-12.062
		C330.118,53.96,330.12,53.93,330.12,53.899z"/>
	<rect x="342.227" y="20.207" fill="#231F20" width="10.266" height="33.784"/>
	<path fill="#231F20" d="M462.077,53.953V38.985c0-6.849-1.247-11.787-3.742-14.813c-2.89-3.557-6.92-5.337-12.091-5.337
		c-4.503,0-8.549,1.945-12.138,5.836v-4.49h-10.311v33.81h-13.472c1.012-2.898,1.524-6.052,1.524-9.469
		c0-7.216-2.281-13.3-6.844-18.255c-4.624-4.955-10.251-7.432-16.882-7.432c-6.601,0-12.198,2.461-16.79,7.382
		c-4.593,4.921-6.89,10.89-6.89,17.906c0,3.583,0.526,6.87,1.568,9.868h-5.779v110.99h22.56l51.326-110.99h-0.009V45.32
		c0-6.051,0.7-10.291,2.099-12.718c1.43-2.461,3.848-3.691,7.255-3.691c3.132,0,5.292,0.931,6.479,2.792
		c1.216,1.83,1.825,5.137,1.825,9.925v12.319l-10.768-0.005l51.463,110.984l52.878,0.054V53.991L462.077,53.953z M399.098,53.991
		h-21.901c-1.505-2.58-2.261-5.801-2.261-9.669c0-4.521,1.216-8.212,3.65-11.073c2.433-2.859,5.612-4.289,9.536-4.289
		c3.985,0,7.193,1.43,9.628,4.289c2.403,2.827,3.604,6.602,3.604,11.323C401.354,48.305,400.6,51.443,399.098,53.991z
		 M517.015,71.723H512.2v10.593h-2.889V71.723h-3.852v-2.889h11.556V71.723z M530.496,82.316l-2.889,0V76.04l-2.459,4.35h-0.86
		l-2.459-4.35v6.276h-2.889V68.834h3.047l2.782,6.417l2.745-6.417l2.982,0V82.316z"/>
</g>
</svg>
