<?xml version="1.0" encoding="utf-8"?>
<!-- Generator: Adobe Illustrator 23.1.1, SVG Export Plug-In . SVG Version: 6.00 Build 0)  -->
<svg version="1.1" id="Layer_1" xmlns="http://www.w3.org/2000/svg" xmlns:xlink="http://www.w3.org/1999/xlink" x="0px" y="0px"
	 width="24px" height="24px" viewBox="0 0 24 24" enable-background="new 0 0 24 24" xml:space="preserve">
<g>
	<g>
		<polygon fill="#FF9438" points="7.51,19.79 4.3,19.79 4.3,9.25 7.6,9.25 7.6,19.79 		"/>
	</g>
	<g>
		<circle fill="#FF9438" cx="5.86" cy="5.86" r="1.92"/>
	</g>
	<g>
		<path fill="#FF9438" d="M19.79,19.79h-3.3v-5.13c0-1.19,0-2.75-1.65-2.75c-1.74,0-1.92,1.28-1.92,2.66v5.23h-3.3V9.25h3.12v1.47
			l0,0c0.46-0.82,1.47-1.65,3.12-1.65c3.3,0,3.94,2.2,3.94,5.04V19.79z"/>
	</g>
	<g>
		<path fill="#FF9438" d="M23,1v22H1V1H23 M24,0H0v24h24V0L24,0z"/>
	</g>
</g>
</svg>
