<?xml version="1.0" encoding="utf-8"?>
<!-- Generator: Adobe Illustrator 24.2.0, SVG Export Plug-In . SVG Version: 6.00 Build 0)  -->
<svg version="1.1" id="Layer_1" xmlns="http://www.w3.org/2000/svg" xmlns:xlink="http://www.w3.org/1999/xlink" x="0px" y="0px"
	 viewBox="0 0 16 16" enable-background="new 0 0 16 16" xml:space="preserve">
<path fill="#FFFFFF" d="M13.73,1.56H2.27C1.57,1.56,1,2.13,1,2.83l0,0v7.64c0,0.7,0.57,1.27,1.27,1.27c0,0,0,0,0,0h3.18V13h5.1
	v-1.26h3.18c0.7,0.01,1.26-0.55,1.27-1.25c0-0.01,0-0.01,0-0.02V2.83C15,2.13,14.43,1.56,13.73,1.56
	C13.73,1.56,13.73,1.56,13.73,1.56z M13.73,10.47H2.27V2.83h11.46V10.47z"/>
</svg>
